<svg xmlns="http://www.w3.org/2000/svg" width="24" height="25" viewBox="0 0 24 25" fill="none"><path d="M1.42722e-05 1.62447C-0.000693304 1.47659 0.0249155 1.33002 0.0753589 1.19324C0.125802 1.05646 0.200079 0.932186 0.29389 0.827615C0.387702 0.723043 0.499186 0.640248 0.621891 0.584019C0.744597 0.52779 0.876088 0.499244 1.00876 0.500032H2.93551C3.38246 0.49756 3.82077 0.637319 4.19894 0.902893C4.57711 1.16847 4.87944 1.54883 5.07041 1.99929H22.3364C22.5944 2.00231 22.8484 2.07149 23.0785 2.20146C23.3087 2.33144 23.5089 2.51872 23.6638 2.74881C23.8186 2.9789 23.9238 3.24562 23.9713 3.52832C24.0188 3.81102 24.0072 4.10212 23.9376 4.37906L22.2137 11.5184C22.0401 12.2352 21.6596 12.8683 21.131 13.32C20.6023 13.7716 19.9549 14.0166 19.2889 14.0171H7.20531L7.43481 15.3557C7.47837 15.612 7.60089 15.8432 7.78119 16.0094C7.96149 16.1756 8.18823 16.2664 8.4222 16.266H20.5485C20.804 16.2867 21.043 16.4145 21.2175 16.6236C21.392 16.8328 21.489 17.1078 21.489 17.3934C21.489 17.679 21.392 17.9541 21.2175 18.1632C21.043 18.3724 20.804 18.5001 20.5485 18.5208H8.39552C7.69135 18.5197 7.00951 18.2453 6.46704 17.7449C5.92457 17.2444 5.55532 16.549 5.42267 15.7781L3.25574 3.05233C3.24122 2.96873 3.2016 2.89313 3.14339 2.83798C3.08518 2.78283 3.01187 2.75142 2.93551 2.74891H1.00876C0.876088 2.7497 0.744597 2.72116 0.621891 2.66493C0.499186 2.6087 0.387702 2.5259 0.29389 2.42133C0.200079 2.31676 0.125802 2.19249 0.0753589 2.05571C0.0249155 1.91893 -0.000693304 1.77236 1.42722e-05 1.62447ZM5.38531 22.2511C5.38531 21.8063 5.50363 21.3715 5.72531 21.0017C5.947 20.6319 6.26208 20.3436 6.63073 20.1734C6.99938 20.0032 7.40503 19.9587 7.79638 20.0455C8.18773 20.1322 8.54721 20.3464 8.82936 20.6609C9.11152 20.9754 9.30366 21.3761 9.38151 21.8124C9.45935 22.2486 9.4194 22.7008 9.2667 23.1117C9.114 23.5227 8.85542 23.8739 8.52364 24.121C8.19187 24.3681 7.80181 24.5 7.40279 24.5C7.13785 24.5 6.8755 24.4418 6.63073 24.3288C6.38596 24.2158 6.16355 24.0501 5.97621 23.8413C5.78887 23.6325 5.64027 23.3846 5.53888 23.1117C5.43749 22.8389 5.38531 22.5464 5.38531 22.2511ZM19.513 20.0022C20.0481 20.0022 20.5612 20.2392 20.9396 20.6609C21.318 21.0827 21.5305 21.6547 21.5305 22.2511C21.5305 22.8476 21.318 23.4196 20.9396 23.8413C20.5612 24.2631 20.0481 24.5 19.513 24.5C18.978 24.5 18.4648 24.2631 18.0864 23.8413C17.7081 23.4196 17.4955 22.8476 17.4955 22.2511C17.4955 21.6547 17.7081 21.0827 18.0864 20.6609C18.4648 20.2392 18.978 20.0022 19.513 20.0022Z" fill="white"></path></svg>
