<svg xmlns="http://www.w3.org/2000/svg" width="24" height="25" viewBox="0 0 24 25" fill="none"><path d="M12 14.3274C14.7614 14.3274 17 12.0888 17 9.32739C17 6.56597 14.7614 4.32739 12 4.32739C9.23858 4.32739 7 6.56597 7 9.32739C7 12.0888 9.23858 14.3274 12 14.3274Z" fill="white"></path><path d="M12 0.5C5.37931 0.5 0 5.86552 0 12.5C0 19.1207 5.36552 24.5 12 24.5C18.6345 24.5 24 19.1345 24 12.5C24 5.87931 18.6207 0.5 12 0.5ZM20.0828 19.969V19.6034C20.0828 17.2724 18.1862 15.369 15.8483 15.369H8.06207C5.73103 15.369 3.82759 17.2655 3.82759 19.6034V19.9C2.05517 17.9483 0.972414 15.3552 0.972414 12.5C0.972414 6.42414 5.90345 1.4931 11.9793 1.4931C18.0552 1.4931 22.9931 6.42414 22.9931 12.5C23.0069 15.3897 21.9103 18.0034 20.0828 19.969Z" fill="white"></path></svg>
